<?xml version="1.0" encoding="utf-8"?>
<!-- Generator: Adobe Illustrator 26.0.1, SVG Export Plug-In . SVG Version: 6.00 Build 0)  -->
<svg version="1.1" id="Layer_1" xmlns="http://www.w3.org/2000/svg" xmlns:xlink="http://www.w3.org/1999/xlink" x="0px" y="0px"
	 viewBox="0 0 500 500" style="enable-background:new 0 0 500 500;" xml:space="preserve">
<style type="text/css">
	.st0{fill:#FFFFFF;}
	.st1{fill:#98A9C9;}
	.st2{fill:#CBD4E6;}
	.st3{fill:#E8A3B6;}
	.st4{fill:#5E7AF4;}
	.st5{fill:#3655CD;}
	.st6{fill:#EAEDF7;}
	.st7{fill:#5B3F33;}
	.st8{fill:#774E3D;}
	.st9{fill:#BAC8CA;}
	.st10{fill:#CB5176;}
	.st11{fill:#F0CD7E;}
	.st12{fill:#373C45;}
	.st13{fill:#87614C;}
	.st14{fill:#94D186;}
	.st15{fill:#B9EDAD;}
	.st16{fill:#7ABA68;}
	.st17{fill:#D4A54E;}
	.st18{fill:#AD746F;}
	.st19{fill:#27212A;}
	.st20{fill:#423848;}
	.st21{fill:#904B48;}
	.st22{fill:none;}
	.st23{fill:#54688A;}
	.st24{fill:#8291AE;}
</style>
<g id="BACKGROUND">
	<rect class="st0" width="500" height="500"/>
</g>
<g id="OBJECTS">
	<g>
		<g>
			<rect x="250.7" y="224" class="st1" width="29.4" height="15.3"/>
			<path class="st2" d="M282.7,239.3h-17.2h-17.2c-1.6,0-3,1-3.5,2.5h20.8h20.8C285.7,240.3,284.2,239.3,282.7,239.3z"/>
			<path class="st2" d="M327.8,169.1H203c-1,0-1.7,0.8-1.7,1.7v58.7c0,1,0.8,1.7,1.7,1.7h124.8c1,0,1.7-0.8,1.7-1.7v-58.7
				C329.6,169.9,328.8,169.1,327.8,169.1z"/>
			<g>
				<g>
					<polygon class="st3" points="325.7,200.3 325.7,172.6 205.2,172.6 205.2,172.6 205.2,200.3 					"/>
					<rect x="205.2" y="200.3" class="st4" width="120.6" height="23.7"/>
				</g>
				<rect x="205.2" y="224" class="st5" width="120.6" height="3.8"/>
			</g>
			<g>
				<g>
					<path class="st4" d="M272.5,182.5h-57.9c-0.8,0-1.4,0.6-1.4,1.4v2h60.7v-2C273.9,183.1,273.3,182.5,272.5,182.5z"/>
					<path class="st0" d="M213.2,216.5c0,0.8,0.6,1.4,1.4,1.4h57.9c0.8,0,1.4-0.6,1.4-1.4v-30.6h-60.7V216.5z"/>
					<path class="st4" d="M317.7,183.9c0-0.8-0.6-1.4-1.4-1.4h-35.5c-0.8,0-1.4,0.6-1.4,1.4v2h38.2V183.9z"/>
					<path class="st0" d="M279.4,185.9v30.6c0,0.8,0.6,1.4,1.4,1.4h35.5c0.8,0,1.4-0.6,1.4-1.4v-30.6H279.4z"/>
				</g>
				<g>
					<circle class="st6" cx="215.8" cy="184.2" r="0.6"/>
					<circle class="st6" cx="218.3" cy="184.2" r="0.6"/>
					<circle class="st6" cx="220.8" cy="184.2" r="0.6"/>
				</g>
				<g>
					<path class="st6" d="M282.5,184.2c0-0.4-0.3-0.6-0.6-0.6s-0.6,0.3-0.6,0.6c0,0.4,0.3,0.6,0.6,0.6
						C282.3,184.8,282.5,184.5,282.5,184.2z"/>
					<path class="st6" d="M285,184.2c0-0.4-0.3-0.6-0.6-0.6s-0.6,0.3-0.6,0.6c0,0.4,0.3,0.6,0.6,0.6
						C284.8,184.8,285,184.5,285,184.2z"/>
					<path class="st6" d="M287.5,184.2c0-0.4-0.3-0.6-0.6-0.6s-0.6,0.3-0.6,0.6c0,0.4,0.3,0.6,0.6,0.6
						C287.3,184.8,287.5,184.5,287.5,184.2z"/>
				</g>
				<g>
					<path class="st6" d="M269.2,214.1h-19.9c-0.8,0-1.4-0.6-1.4-1.4v-6c0-0.8,0.6-1.4,1.4-1.4h19.9c0.8,0,1.4,0.6,1.4,1.4v6
						C270.6,213.5,270,214.1,269.2,214.1z"/>
					<g>
						<g>
							<path class="st6" d="M243.6,214.1h-25.8c-0.8,0-1.4-0.6-1.4-1.4V191c0-0.8,0.6-1.4,1.4-1.4h25.8c0.8,0,1.4,0.6,1.4,1.4v21.8
								C245,213.5,244.4,214.1,243.6,214.1z"/>
							<path class="st6" d="M269.2,202.6h-19.9c-0.8,0-1.4-0.6-1.4-1.4V191c0-0.8,0.6-1.4,1.4-1.4h19.9c0.8,0,1.4,0.6,1.4,1.4v10.3
								C270.6,202,270,202.6,269.2,202.6z"/>
						</g>
						<g>
							<path class="st2" d="M267.9,193.8h-17.3c-0.3,0-0.5-0.2-0.5-0.5v-0.5c0-0.3,0.2-0.5,0.5-0.5h17.3c0.3,0,0.5,0.2,0.5,0.5v0.5
								C268.4,193.6,268.2,193.8,267.9,193.8z"/>
							<path class="st2" d="M261.4,197h-10.9c-0.2,0-0.4-0.2-0.4-0.4V196c0-0.2,0.2-0.4,0.4-0.4h10.9c0.2,0,0.4,0.2,0.4,0.4v0.7
								C261.7,196.9,261.6,197,261.4,197z"/>
							<path class="st2" d="M264.6,200.3h-14c-0.2,0-0.4-0.2-0.4-0.4v-0.6c0-0.2,0.2-0.4,0.4-0.4h14c0.2,0,0.4,0.2,0.4,0.4v0.6
								C265,200.1,264.8,200.3,264.6,200.3z"/>
						</g>
						<g>
							<path class="st2" d="M242.3,193.8h-22.8c-0.3,0-0.5-0.2-0.5-0.5v-0.4c0-0.3,0.2-0.5,0.5-0.5h22.8c0.3,0,0.5,0.2,0.5,0.5v0.4
								C242.8,193.5,242.5,193.8,242.3,193.8z"/>
							<path class="st2" d="M242.3,197h-22.8c-0.3,0-0.5-0.2-0.5-0.5v-0.4c0-0.3,0.2-0.5,0.5-0.5h22.8c0.3,0,0.5,0.2,0.5,0.5v0.4
								C242.8,196.8,242.5,197,242.3,197z"/>
							<path class="st2" d="M231.4,200.3h-12.1c-0.2,0-0.4-0.2-0.4-0.4v-0.7c0-0.2,0.2-0.4,0.4-0.4h12.1c0.2,0,0.4,0.2,0.4,0.4v0.7
								C231.8,200.1,231.6,200.3,231.4,200.3z"/>
							<path class="st2" d="M242.3,203.6h-22.8c-0.3,0-0.5-0.2-0.5-0.5v-0.4c0-0.3,0.2-0.5,0.5-0.5h22.8c0.3,0,0.5,0.2,0.5,0.5v0.4
								C242.8,203.3,242.5,203.6,242.3,203.6z"/>
							<path class="st2" d="M236.8,206.8h-17.4c-0.3,0-0.5-0.2-0.5-0.5v-0.5c0-0.3,0.2-0.5,0.5-0.5h17.4c0.3,0,0.5,0.2,0.5,0.5v0.5
								C237.3,206.6,237.1,206.8,236.8,206.8z"/>
						</g>
					</g>
				</g>
			</g>
		</g>
		<g>
			<polygon class="st7" points="308.9,241.9 292.6,241.9 310.4,259.7 326.6,259.7 			"/>
			<polygon class="st7" points="243.6,241.9 259.9,241.9 242.2,259.7 225.9,259.7 			"/>
			<g>
				<polygon class="st8" points="256,248.2 256.3,248.2 270.5,248.2 270.8,248.2 289.4,248.2 300.8,259.7 310.4,259.7 292.6,241.9 
					271.7,241.9 271.3,241.9 255.5,241.9 255.1,241.9 234.1,241.9 216.4,259.7 226,259.7 237.4,248.2 				"/>
				<polygon class="st8" points="271.7,259.7 271.3,259.7 255.5,259.7 255.1,259.7 226,259.7 221.7,264 256,264 256.3,264 
					270.5,264 270.8,264 305.1,264 300.8,259.7 				"/>
			</g>
		</g>
	</g>
	<path class="st6" d="M41.5,394.6c0-13.5,110.2-16.1,210.7-16.1c131.2,0,380.8,30.1,7.8,30.1C172.7,408.6,41.5,405.3,41.5,394.6z"/>
	<g>
		<g>
			<path class="st5" d="M129.8,243.3H92.1v2.9c0,0,1.4,1.3,2.1,3.3c0.2,0.6,0.3,1.3,0.3,2c0,3.2-2.4,5.2-2.4,5.2v2.9h37.7
				c1.2,0,2.2-1,2.2-2.2v-12C131.9,244.3,131,243.3,129.8,243.3z"/>
			<g>
				<g>
					<path class="st6" d="M84.2,251.6c0-0.7-0.1-1.4-0.3-2h36.3v8.3H83l-1.2-1.2C81.8,256.7,84.2,254.8,84.2,251.6z"/>
					<path class="st9" d="M81.8,246.2l1.5-1.5h37v4.8H83.9C83.2,247.5,81.8,246.2,81.8,246.2z"/>
				</g>
				<path class="st5" d="M81.8,246.2v-2.9h37.7c1.2,0,2.2,1,2.2,2.2v12c0,1.2-1,2.2-2.2,2.2H81.8v-2.9h37v-10.5L81.8,246.2
					L81.8,246.2z"/>
			</g>
		</g>
		<g>
			<path class="st10" d="M365.5,243.3h37.7v2.9c0,0-1.4,1.3-2.1,3.3c-0.2,0.6-0.3,1.3-0.3,2c0,3.2,2.4,5.2,2.4,5.2v2.9h-37.7
				c-1.2,0-2.2-1-2.2-2.2v-12C363.3,244.3,364.3,243.3,365.5,243.3z"/>
			<g>
				<g>
					<path class="st6" d="M411,251.6c0-0.7,0.1-1.4,0.3-2H375v8.3h37.3l1.2-1.2C413.5,256.7,411,254.8,411,251.6z"/>
					<path class="st9" d="M413.5,246.2l-1.5-1.5h-37v4.8h36.3C412,247.5,413.5,246.2,413.5,246.2z"/>
				</g>
				<path class="st10" d="M413.5,246.2v-2.9h-37.7c-1.2,0-2.2,1-2.2,2.2v12c0,1.2,1,2.2,2.2,2.2h37.7v-2.9h-37v-10.5L413.5,246.2
					L413.5,246.2z"/>
			</g>
		</g>
		<g>
			<path class="st11" d="M138.3,227h-37.7v2.9c0,0,1.4,1.3,2.1,3.3c0.2,0.6,0.3,1.3,0.3,2c0,3.2-2.4,5.2-2.4,5.2v2.9h37.7
				c1.2,0,2.2-1,2.2-2.2v-12C140.4,228,139.5,227,138.3,227z"/>
			<g>
				<g>
					<path class="st6" d="M92.8,235.3c0-0.7-0.1-1.4-0.3-2h36.3v8.3H91.5l-1.2-1.2C90.3,240.4,92.8,238.5,92.8,235.3z"/>
					<path class="st9" d="M90.3,229.9l1.5-1.5h37v4.8H92.4C91.8,231.2,90.3,229.9,90.3,229.9z"/>
				</g>
				<path class="st11" d="M90.3,229.9V227H128c1.2,0,2.2,1,2.2,2.2v12c0,1.2-1,2.2-2.2,2.2H90.3v-2.9h37v-10.5H90.3z"/>
			</g>
		</g>
	</g>
	<g>
		<g>
			<path class="st12" d="M430.9,390.7l1-119.6h-9.4l0.8,119.6c0,1.4,1.2,2.6,2.6,2.6h2.4C429.7,393.3,430.8,392.1,430.9,390.7z"/>
			<rect x="327.5" y="271.2" class="st12" width="104.4" height="4.9"/>
			<path class="st12" d="M331.2,390.5l1-119.4h-9.5l0.8,119.4c0,1.4,1.2,2.6,2.6,2.6h2.5C330.1,393.1,331.2,391.9,331.2,390.5z"/>
			<path class="st12" d="M72.8,390.5l1.1-119.4h-9.5l1.5,119.4c0,1.4,1.2,2.5,2.6,2.5h1.8C71.6,393.1,72.8,391.9,72.8,390.5z"/>
			<path class="st12" d="M170.3,390.7l1.1-119.6h-9.5l1.5,119.6c0,1.4,1.2,2.5,2.6,2.5h1.8C169.2,393.3,170.3,392.1,170.3,390.7z"/>
			<rect x="64.4" y="271.2" class="st12" width="263.1" height="4.9"/>
		</g>
		<g>
			<rect x="64.4" y="259.7" class="st13" width="367.5" height="11.5"/>
			<rect x="327.5" y="259.7" class="st7" width="104.4" height="11.5"/>
		</g>
	</g>
	<g>
		<g>
			<g>
				<rect x="52.8" y="126.1" class="st6" width="62.1" height="77.1"/>
				<g>
					<rect x="69.1" y="163.2" class="st0" width="29.7" height="2.8"/>
					<rect x="62.1" y="171.7" class="st0" width="43.5" height="2.8"/>
					<rect x="62.1" y="177.8" class="st0" width="43.5" height="2.8"/>
					<rect x="62.1" y="183.9" class="st0" width="43.5" height="2.8"/>
					<rect x="62.1" y="190" class="st0" width="43.5" height="2.8"/>
					<circle class="st0" cx="83.9" cy="147.6" r="11"/>
				</g>
			</g>
			<g>
				<rect x="136.9" y="97.4" class="st6" width="37.3" height="63.9"/>
				<circle class="st0" cx="155.6" cy="118.9" r="11"/>
			</g>
			<g>
				<rect x="125.8" y="172.6" class="st6" width="22.1" height="22.1"/>
				<rect x="128.2" y="174.9" class="st0" width="17.5" height="14.7"/>
			</g>
		</g>
		<g>
			<g>
				<g>
					<rect x="418" y="157.5" class="st6" width="26.3" height="45"/>
					<circle class="st0" cx="431.1" cy="172.6" r="7.8"/>
				</g>
				<g>
					<rect x="386.4" y="127.5" class="st6" width="22.1" height="22.1"/>
					<rect x="388.7" y="129.8" class="st0" width="17.5" height="14.7"/>
				</g>
				<g>
					<rect x="356.1" y="180.4" class="st6" width="22.1" height="22.1"/>
					<rect x="358.4" y="182.7" class="st0" width="17.5" height="14.7"/>
				</g>
				<g>
					<rect x="356" y="150.8" class="st6" width="22.1" height="22.1"/>
					<rect x="358.3" y="153.1" class="st0" width="17.5" height="14.7"/>
				</g>
			</g>
			<g>
				<rect x="306.6" y="98.9" class="st6" width="32.3" height="40"/>
				<g>
					<rect x="315" y="118.1" class="st0" width="15.4" height="1.5"/>
					<rect x="311.4" y="122.6" class="st0" width="22.6" height="1.5"/>
					<rect x="311.4" y="125.7" class="st0" width="22.6" height="1.5"/>
					<rect x="311.4" y="128.9" class="st0" width="22.6" height="1.5"/>
					<rect x="311.4" y="132" class="st0" width="22.6" height="1.5"/>
					<circle class="st0" cx="322.8" cy="110" r="5.7"/>
				</g>
			</g>
		</g>
	</g>
	<g>
		<g>
			<path class="st14" d="M381.1,345.8h-22.9c0,0-12.7-10.6-2.5-35.2s-11.9-27.2-10.5-44s14.2-50.6,26.1-44.8s18.2,20.5,2.9,34.6
				c-15.3,14.1,13.3,25.4,7.8,43.4C376.5,317.8,406.3,313.6,381.1,345.8z"/>
			<g>
				<path class="st15" d="M380.5,254.2l0.6,0.3c0,0.1-3.2,5.9-11.4,9.4c0-0.2,0.1-0.5,0.1-0.7C377.5,259.7,380.5,254.3,380.5,254.2z
					"/>
				<path class="st16" d="M356.2,266.4c0.2,6.2,2.7,10.7,7,17.5c2.6-0.5,3.8-1.3,3.8-1.3l0.4,0.5c-0.1,0.1-1.3,0.9-3.8,1.4
					c0.2,0.3,0.3,0.5,0.5,0.8c1.5,2.3,3.1,5,4.9,8.1l-0.5,0.3c-1.8-3.1-3.4-5.7-4.9-8.1c-0.2-0.3-0.4-0.6-0.6-1
					c-1.2,0.2-2.6,0.3-4.3,0.3c-1.6,0-3.4-0.1-5.5-0.4c-0.2-0.2-0.4-0.5-0.5-0.7c4.4,0.7,7.7,0.6,10,0.2c-6.5-10.5-9-15.6-4.9-31.1
					c1.1-4.3,2.9-8.4,4.8-12.1c-2.7-4.1-4.1-7.9-4.8-10.9c0.2-0.2,0.3-0.5,0.5-0.7c0.7,2.8,2,6.7,4.7,10.9c3.9-7.1,8.6-12.8,12-16.4
					c0.2,0.1,0.3,0.2,0.5,0.4c-5.2,5.5-13.6,16.1-17.1,28.9c-1.4,5.3-2,9.3-2,12.7c0.1,0,0.1,0,0.2,0c5.6,0,10.1-1.1,13.5-2.7
					c-0.1,0.2-0.1,0.5-0.1,0.7c-3.5,1.5-7.9,2.6-13.4,2.6C356.3,266.4,356.2,266.4,356.2,266.4z"/>
			</g>
			<path class="st16" d="M386.2,348.2h-19.4c0,0,5.6-12.3-5.8-28.2c-11.5-15.9-5-25.5,1-33.6c6.1-8.1-7.1-25.2-1.7-32.1
				s39.1-10.9,31,12.9s12.7,24.2,0,47.6C378.7,338.2,392,335.5,386.2,348.2z"/>
			<path class="st14" d="M400,346.7c0,0-3.3-11.1,9.2-22.5c12.5-11.4-2.7-23.6,0-36.6s7.9-35.4-14.6-33s3.3,37.3-7.2,55.7
				c-10.5,18.5-27.2,10.8-5.2,49L400,346.7z"/>
			<g>
				<path class="st15" d="M389.9,354.8l-0.6,0.3c0-0.1-0.2-0.3-0.3-0.6l0.5-0.4C389.8,354.5,389.9,354.8,389.9,354.8z"/>
				<path class="st15" d="M388.5,326.2c1.4-1.2,2.7-2.4,3.9-3.7c-1.3-0.6-5.2-2.9-8.4-7.4c0.1-0.2,0.3-0.3,0.4-0.5
					c3.3,4.7,7.5,6.9,8.5,7.4c8.5-9.2,10.8-20.4,6.6-33.3c-0.1-0.3-0.2-0.7-0.3-1c-0.2,0-0.6,0.1-1.2,0.1c-2,0-5.6-0.4-9.7-2.7
					c-0.1-0.3-0.1-0.6-0.2-0.8c5.1,3.1,9.6,3,10.9,2.9c-3.7-13-2.8-26.7-2.1-32.8c0.2,0,0.4,0,0.6,0c-0.4,3.8-1,10.7-0.3,18.6
					c7.9-2,12.1-5,14.3-7c0,0.3,0.1,0.5,0.1,0.8c-2.3,2.1-6.6,4.9-14.3,6.8c0.4,4.8,1.3,10,2.9,15c2,6.2,2.5,12.1,1.6,17.5
					c4.2-0.3,7.5-1.4,10.1-2.8c0.1,0.2,0.1,0.4,0.2,0.6c-2.7,1.4-6.1,2.6-10.4,2.8c-1.4,7.5-5.7,14.2-12.7,19.9
					c-8.5,7.1-1.1,23.8,0.7,27.4l-0.5,0.4C387.3,350.9,379.4,333.7,388.5,326.2z"/>
			</g>
		</g>
		<g>
			<polygon class="st5" points="391,339.6 388.4,354 405.1,354 407.7,339.6 			"/>
			<polygon class="st5" points="387.4,359.3 404.1,359.3 405.1,354 388.4,354 			"/>
			<polygon class="st17" points="384.3,376.5 401,376.5 404.1,359.3 387.4,359.3 			"/>
			<path class="st5" d="M383.4,381.4c-0.8,4.5-2.9,8.5-5.9,11.6h8.4c6.9,0,12.9-4.8,14.2-11.5c0,0,0-0.1,0-0.1l0.9-5h-16.7
				L383.4,381.4z"/>
			<polygon class="st4" points="360.9,354 377.6,354 388.4,354 391,339.6 377.6,339.6 360.9,339.6 347.6,339.6 350.2,354 			"/>
			<polygon class="st5" points="360.9,354 350.2,354 351.1,359.3 360.9,359.3 377.6,359.3 387.4,359.3 388.4,354 377.6,354 			"/>
			<polygon class="st11" points="360.9,359.3 351.1,359.3 354.2,376.5 360.9,376.5 377.6,376.5 384.3,376.5 387.4,359.3 
				377.6,359.3 			"/>
			<path class="st4" d="M384.3,376.5h-6.7h-16.7h-6.7l0.9,5c0,0,0,0.1,0,0.1c1.3,6.7,7.4,11.5,14.2,11.5h8.1c3-3.1,5.1-7.1,5.9-11.6
				L384.3,376.5z"/>
		</g>
	</g>
	<g>
		<path class="st12" d="M294.1,259.8l0.5-1.3c0.1-0.4,0.5-0.6,0.9-0.6h46.4c0.4,0,0.8,0.2,0.9,0.6l0.5,1.3L294.1,259.8L294.1,259.8z
			"/>
		<g>
			<path class="st12" d="M314.8,239.3c-0.3,0.3-0.3,0.8,0,1.1c0.3,0.3,0.8,0.3,1.1,0s0.3-0.8,0-1.1S315.1,239,314.8,239.3z"/>
			<g>
				
					<rect x="308" y="241.9" transform="matrix(0.7071 -0.7071 0.7071 0.7071 -80.2418 291.9587)" class="st12" width="8.6" height="1.8"/>
				<g>
					<polygon class="st12" points="297.5,257.6 298.4,257.2 297.9,256.7 					"/>
					<path class="st12" d="M297.9,256.7l0.5,0.5l1.2-0.5c0,0,0,0,0.1,0l-1.2-1.2c0,0,0,0,0,0.1L297.9,256.7z"/>
				</g>
				<path class="st12" d="M298.6,255.2c-0.1,0.1-0.1,0.2-0.2,0.2l1.2,1.2c0.1,0,0.2-0.1,0.2-0.2l0.1-0.1L298.6,255.2L298.6,255.2z"
					/>
				
					<rect x="297.3" y="250" transform="matrix(0.7071 -0.7071 0.7071 0.7071 -88.3574 288.5972)" class="st12" width="13.7" height="1.8"/>
				
					<rect x="309" y="245.1" transform="matrix(0.7071 -0.7071 0.7071 0.7071 -83.3971 290.6518)" class="st12" width="0.3" height="1.8"/>
			</g>
		</g>
		<path class="st12" d="M296.8,258l0.4-1.6c0.1-0.2,0.2-0.4,0.5-0.4h3.6l-2,1.8c-0.1,0.1-0.2,0.1-0.3,0.1L296.8,258L296.8,258z"/>
	</g>
	<g>
		<g>
			<path class="st18" d="M264.5,253.1c0,0,2.8-0.6,5.6-0.6s6.6,1.2,9.4,2.1c3,1,7.4,2.2,7.4,5.1h-24.3L264.5,253.1z"/>
			<g>
				<g>
					<g>
						<path class="st18" d="M231.5,164.8c1.4-6.6,3-10.6-2.2-18.6c0,0-15.4,2.6-21.3,17.2c-0.3,0.7-0.5,1.5-0.8,2.2l-3.8,0.4
							c0,0,2.7,9.2-5.4,21.2l14.5,2.5c2.1-8,4.8-10.6,4.8-10.6s3.6,2.2,6.8,0.7c3.2-1.5,5.1-7.7,5.1-7.7s3.3-0.3,3-2.7
							C231.8,166.9,231.5,164.8,231.5,164.8z"/>
						<g>
							<path class="st19" d="M236.5,135.2c-5.4-6-15.9-6-15.9-6s-7-5.9-15-4.2c-8,1.6-10,11.1-10,11.1s-7.3,3.6-7.5,12
								c0,1.2,0.1,2.3,0.2,3.3c-0.3,1.8-0.7,4.7,0.1,6.4c1.2,2.8,1.9,3,1.9,3s-0.7,4.3,1.9,6.2c2.6,1.9,5.4,2,5.4,2s0.6,1.9,2.4,2.4
								c1.8,0.5,3.6,0.1,3.6,0.1s5.2,2.9,9.1,0.1c2.8,1,7.9,1.6,11.1-5.6c0,0,4.9-0.3,5.6-5.6c0,0,5.2,0.8,7.6-3.7
								c2.4-4.5,1.5-8.9,1.5-8.9S242.4,141.8,236.5,135.2z"/>
							<g>
								<g>
									<path class="st20" d="M197.5,157.6c-0.1,0-0.1,0-0.2-0.1c-0.1-0.1-2.4-1.6-2.8-3.9c-0.2-1.2,0.2-2.4,1.2-3.5
										c-0.4-0.7-1.4-2.9-0.7-5.3c0.5-1.9,2-3.5,4.4-4.8c0.2-0.1,0.3,0,0.4,0.1c0.1,0.2,0,0.3-0.1,0.4c-2.2,1.1-3.6,2.6-4,4.4
										c-0.7,2.6,0.7,5,0.7,5c0.1,0.1,0.1,0.3,0,0.4c-0.9,1-1.3,2.1-1.2,3.2c0.3,2.1,2.5,3.5,2.5,3.5c0.1,0.1,0.2,0.3,0.1,0.4
										C197.7,157.6,197.6,157.6,197.5,157.6z"/>
								</g>
								<g>
									<path class="st20" d="M204.2,135.5c0,0-0.1,0-0.1,0c-0.2-0.1-0.2-0.3-0.1-0.4c0-0.1,1.1-2.3,3.4-2.9
										c1.6-0.4,3.3-0.1,5.1,1.1c0.1,0.1,0.2,0.3,0.1,0.4c-0.1,0.1-0.3,0.2-0.4,0.1c-1.7-1-3.2-1.4-4.6-1c-2,0.6-3,2.6-3,2.6
										C204.4,135.4,204.3,135.5,204.2,135.5z"/>
								</g>
								<g>
									<path class="st20" d="M204.2,152.2c-0.2,0-0.3-0.1-0.3-0.3c0-0.1-0.2-1.7,0.8-3c0.7-0.9,1.8-1.3,3.3-1.4
										c0.2,0,0.3,0.1,0.3,0.3c0,0.2-0.1,0.3-0.3,0.3c-1.3,0.1-2.2,0.5-2.8,1.2c-0.9,1.1-0.7,2.5-0.7,2.5
										C204.6,152,204.4,152.2,204.2,152.2C204.3,152.2,204.2,152.2,204.2,152.2z"/>
								</g>
							</g>
						</g>
					</g>
					<g>
						<g>
							<path class="st21" d="M250.6,296.1c0,0-5.9,11.3-8.7,24.3c-2.4,11.1,2.7,29.5,1.2,42.6c-0.4,2.5-1.1,8.6-2.2,10.4
								c-1.4,2.2-4.2,4.5-4.7,7.5c-0.3,1.7,0.7,3.6,2.7,4.7c2,1.1,3.5,0.1,4.2,0.2c4.3,0.7,5,3.9,12.4,5.3c2.3,0.4,5.9-0.2,8-1.6
								c0.8-0.6,0.4-0.7,0-1.4s-5.4-3.5-7.8-5.1c-2.3-1.5-4.7-5.5-5-7.1c-0.3-1.5,1.2-8.8,1.9-11.8c4.6-20.9,10.4-50.8,13.3-63"/>
						</g>
						<path class="st18" d="M304.1,384.3c-0.6-0.5-6.4-0.5-9.2-1.2c-2.7-0.7-6.3-3.6-7.1-4.9s-1.8-8.7-2.2-11.8
							c-2.6-20.3-7.6-54-9.2-67.7c0-3.2-0.8-5.4-4.2-7.7c-8.2-5.4-39.4-15.7-74.8-21.4L163.3,289c0,0,1.4,12.4,16.8,15.7
							c8.9,1.9,23.8-0.2,27.5-0.1c2.7,0.1,34.9,1.3,52,1.9c-0.3,4.9-0.3,11.9,0.7,19c1.6,11.3,13.2,30.1,16.1,42.9
							c0.5,2.5,1.9,8.5,1.4,10.5c-0.5,2.5-2.5,5.6-1.9,8.6c0.3,1.7,1.8,3.2,4.1,3.5c2.3,0.3,3.3-1.1,4.1-1.3c4.3-0.8,6,2,13.5,0.8
							c2.3-0.4,5.5-2.1,7-4.2C305.1,385.7,304.7,384.8,304.1,384.3z"/>
						<path class="st11" d="M267.9,285.8c-9.5-3.8-21.2-8-39.2-12.8c-9.1-3-18.1-6.2-19.3-7.4c-2.6-2.5-5.1-7.9-5.1-7.9l-34,1
							c0,0-10.7,20.8-7.9,29.6c2.7,8.8,7.9,17.2,22.6,17.3c13.9,0.1,47.8,0.1,51.1,0.1c6.9,0.7,13.6,0.9,18.2,0.9
							c4.7,0,9.3-2.1,12.2-5.8c0.9-1.1,1.7-2.4,2.4-3.9c1.6-3.5,1.7-6.5,1.5-8.3C270,287.4,269.1,286.3,267.9,285.8z"/>
						<g>
							<path class="st10" d="M223.3,229.6c1.3-2.3,1.6-5.4,1.2-8.9c-1.8-3.7-4.4-6.7-7.8-8.6c0,0-1.3,13.7-1.6,26.9
								C218.1,235.8,220.7,234.1,223.3,229.6z"/>
						</g>
						<g>
							<path class="st3" d="M242.5,241.4c-0.1-0.3-0.2-0.6-0.4-1C242.3,241,242.5,241.4,242.5,241.4
								C242.5,241.4,242.5,241.4,242.5,241.4z"/>
							<g>
								<path class="st22" d="M242.5,241.4c0.2,0.1,0.3,0.3,0.5,0.4c-0.3-0.4-0.6-0.9-0.9-1.4C242.3,241.1,242.5,241.4,242.5,241.4
									C242.5,241.4,242.5,241.4,242.5,241.4z"/>
								<path class="st10" d="M180.6,246.7c2.3-6.1,3.8-12.5,4.4-19c0.5-4.9,0.9-9.5,1.4-11.9c2.1-11.2,3.8-20.1,7.3-29.8l-0.7,0.1
									c-4.6,0.8-8.4,4-10,8.3c-3.6,9.9-5.3,18.9-7.4,30.3c-0.5,2.4-0.9,7-1.4,11.9c-0.6,6.5-2.1,12.9-4.4,19
									c-0.6,1.6-1.2,2.9-1.8,4c0,0,9.9,5.6,43.3,7c0.2,0-0.7-4.1-0.8-9.6c-24.1-2.1-31.7-6.3-31.7-6.3
									C179.4,249.7,180,248.3,180.6,246.7z"/>
								<path class="st3" d="M243.3,242.2c0.8,1.2,3.9,2.6,7.8,4c-3-1.3-5.9-2.9-8-4.5C243.1,242,243.2,242.1,243.3,242.2z"/>
								<path class="st3" d="M267.2,251.9c0,0-8.6-2.3-16.1-5.6c-3.9-1.4-7-2.9-7.8-4c-0.1-0.1-0.2-0.3-0.3-0.4
									c-0.2-0.1-0.4-0.3-0.5-0.4c0,0,0,0,0,0c0,0-0.1-0.3-0.3-0.9c0,0,0,0,0-0.1c-1.6-4.7-5.7-12.6-9.1-22.8
									c-0.6-2.5-1.2-5-1.7-7.5c-2.1-9.6-4-18.3-9-20.2c-2.6-1-5.1-1.6-7.6-2.3c0,0-0.4-2.7-5.7-4.5c-2.3-0.8-4.4-1-6.2-1
									c-0.7,0-1.3,0.1-1.9,0.1c-1.4,0.2-2.4,0.5-2.9,0.8c-1.1,0.7-2.4,2.6-2.4,2.6l-2,0.3c-3.5,9.7-5.2,18.6-7.3,29.8
									c-0.5,2.4-0.9,7-1.4,11.9c-0.6,6.5-2.1,12.9-4.4,19c-0.6,1.6-1.2,2.9-1.8,4c0,0,7.5,4.3,31.7,6.3c0-5.5,0.8-12.3,4.5-18.1
									c0.1-7.8,0.7-15.7,1.1-20.9c0,0,3.5,8.1,7.5,16.5c3,6.3,6.3,12.8,8.8,16.5c1.9,2.7,16.8,7.4,24.2,8.3c5.6,0.6,10,0.2,10,0.2
									S269.3,257.8,267.2,251.9z"/>
							</g>
						</g>
					</g>
				</g>
				<g>
					<g>
						<path class="st23" d="M157.6,340c11-39.3,22-58.4,33.7-58.4c11.8,0,21.4,19.1,29.6,58.5c4.1,20.1,6.8,40.3,7.9,50.3
							c0.2,1.5-1,2.9-2.6,2.9h0c-1.3,0-2.4-1-2.6-2.3c-1.2-9.9-3.7-30-7.9-49.9c-10.1-49.1-20.5-54.4-24.5-54.4
							c-15.5,0-32.4,61.5-40.3,104.4c-0.2,1.2-1.3,2.1-2.5,2.1l0,0c-1.6,0-2.8-1.5-2.5-3C147.9,380.2,152,360,157.6,340z"/>
					</g>
					<g>
						<g>
							<path class="st4" d="M269.9,292.9c-3.7,0.9-9.4,2-15.2,2.6c-2.5,0.2-5,0.4-7.4,0.4c-8.6,0-17.6-2.6-22.5-4.2
								c-2.1-0.7-3.5-2.8-3.4-5c0.7-15.1,1.5-72.1-23.1-84.8c-3.1-1.6-6.6-2.5-10.6-2.5c-41.6,0-35.5,89.4-35.5,89.4
								s1.4,25.3,62.3,25.3c0.1,0,0.2,0,0.3,0c41.7-0.1,54.3-10.5,58.1-17.1c0.1-0.1,0.1-0.2,0.2-0.3
								C273.8,294.6,272.1,292.4,269.9,292.9z"/>
							<path class="st5" d="M187.6,199.3c4,0,7.5,0.9,10.6,2.5c-31.8,11.8-26.6,87.9-26.6,87.9s1.1,19.6,43.2,24.3
								c-0.1,0-0.2,0-0.3,0c-60.9,0-62.3-25.3-62.3-25.3S146,199.3,187.6,199.3z"/>
						</g>
						<g>
							<path class="st5" d="M196.6,209.1c15.4,15.8,14.2,65.8,14.2,66.3c0,0.1,0.1,0.3,0.3,0.3c0,0,0,0,0,0c0.1,0,0.3-0.1,0.3-0.3
								c0-0.5,1.2-50.7-14.3-66.7c-1.5-1.6-3.1-2.7-4.9-3.6c-0.2,0.1-0.3,0.2-0.5,0.4C193.4,206.3,195.1,207.5,196.6,209.1z"/>
							<path class="st4" d="M160.5,230.3c-4.1,13-4.9,26.2-4.9,26.4c0,0.1,0.1,0.3,0.3,0.3c0.2,0,0.3-0.1,0.3-0.3
								c0-0.5,3.2-52.4,29.8-52.4c2,0,3.9,0.4,5.7,1.2c0.2-0.1,0.3-0.2,0.5-0.4c-1.9-0.9-4-1.4-6.2-1.4
								C174.7,203.8,166,212.9,160.5,230.3z"/>
						</g>
					</g>
					<g>
						<path class="st24" d="M204.3,339.9c11.2-39.3,22.4-58.4,34.3-58.4c12,0,21.8,19.1,30.1,58.5c4.2,20.1,6.9,40.3,8.1,50.3
							c0.2,1.5-1,2.9-2.6,2.9h0c-1.3,0-2.4-1-2.6-2.3c-4.8-42.8-17.3-104.2-33-104.2c-15.8,0-33,61.5-41,104.4
							c-0.2,1.2-1.3,2.1-2.5,2.1h0c-1.6,0-2.8-1.5-2.5-3.1C194.4,380.2,198.6,360,204.3,339.9z"/>
					</g>
				</g>
			</g>
		</g>
		<g>
			<path class="st11" d="M295.5,383.1c0,0,9.6,0.1,10.3,2.2c1.1,3-5.6,5.5-10.5,6.1c-4.7,0.6-18.5,1-19.7-2c-1.2-3,1.7-8.8,1.7-8.8
				s2.8,5.3,12,5.7C298.5,386.8,295.5,383.1,295.5,383.1z"/>
			<path class="st11" d="M256.1,383.2c0,0,8.9,3.5,8.9,5.7c0,3.2-7.2,3.2-12,2c-4.6-1.1-17.1-5.1-17.4-8.3c-0.4-4,4.5-8.2,4.5-8.2
				s0.6,6,9,9.6C257.6,387.7,256.1,383.2,256.1,383.2z"/>
		</g>
	</g>
</g>
</svg>
